<?xml version="1.0" encoding="UTF-8"?>
<!-- Created with Inkscape (http://www.inkscape.org/) -->
<svg width="64" height="64" version="1.1" viewBox="0 0 64 64" xmlns="http://www.w3.org/2000/svg">
 <defs>
  <mask id="mask2219" maskUnits="userSpaceOnUse">
   <path transform="matrix(3.5085 0 0 3.3125 -59.059 -55.597)" d="m24 30.274-7.2453-12.549 14.491-1e-6z" fill="#fff" stop-color="#000000" stroke-width=".29334px" style="-inkscape-stroke:none;paint-order:stroke fill markers"/>
  </mask>
  <mask id="mask2223" maskUnits="userSpaceOnUse">
   <path transform="matrix(3.3125 0 0 3.3125 -47.5 -47.498)" d="m24 30.274-7.2453-12.549 14.491-1e-6z" fill="#fff" stop-color="#000000" stroke-width=".30189px" style="-inkscape-stroke:none;paint-order:stroke fill markers"/>
  </mask>
  <mask id="mask2247" maskUnits="userSpaceOnUse">
   <path d="m10.984 12.639c-1.5894-0.46754-3.2419 0.44638-3.7246 2.0312-1.9401 6.3694-0.58789 14.512-0.58789 14.512l5.8691-1.252s-1.0004-5.6036 0.47266-11.564c0.39757-1.6088-0.43969-3.2581-2.0293-3.7266zm28.321 0c1.5894-0.46754 3.2419 0.44638 3.7246 2.0312 1.9401 6.3694 0.58789 14.512 0.58789 14.512l-5.8691-1.252s1.0004-5.6036-0.47266-11.564c-0.39757-1.6088 0.43969-3.2581 2.0293-3.7266z" color="#000000" fill="#fff" style="paint-order:markers fill stroke"/>
  </mask>
  <mask id="mask2251" maskUnits="userSpaceOnUse">
   <path d="m10.984 12.639c-1.5894-0.46754-3.2419 0.44638-3.7246 2.0312-1.9401 6.3694-0.58789 14.512-0.58789 14.512l5.8691-1.252s-1.0004-5.6036 0.47266-11.564c0.39757-1.6088-0.43969-3.2581-2.0293-3.7266zm28.321 0c1.5894-0.46754 3.2419 0.44638 3.7246 2.0312 1.9401 6.3694 0.58789 14.512 0.58789 14.512l-5.8691-1.252s1.0004-5.6036-0.47266-11.564c-0.39757-1.6088 0.43969-3.2581 2.0293-3.7266z" color="#000000" fill="#fff" style="paint-order:markers fill stroke"/>
  </mask>
 </defs>
 <path transform="rotate(-3.2112 31.841 -37.844)" d="m8.2425 12.63s-7.555 1.9069-7.3218 4.103c0.23316 2.1961 5.1683 2.8235 5.1683 2.8235s-2.8153 2.0392-2.3265 3.0574c1.0463 2.1793 13.401 3.4916 13.401 3.4916m32.799-11.135s7.2943 2.74 6.8169 4.8962c-0.47734 2.1562-5.4517 2.2277-5.4517 2.2277s2.5696 2.3413 1.9699 3.2984c-1.2835 2.0486-13.708 1.9706-13.708 1.9706" fill="#ffd282"/>
 <path d="m8 11.215s5.6799-6.4556 12.305-6.7022c4.0639-0.15129 5.1326 2.7972 5.1326 2.7972s5.4433-4.8136 13.688-5.1228c5-0.1875 6.4375 5.1228 6.4375 5.1228s0.37776-2.884 2.8277-2.8847c4.6107-0.0013727 7.6098 6.7898 7.6098 6.7898" fill="#ffd282"/>
 <g transform="translate(0,-6)" fill="none" stroke="#000" stroke-width="1.8">
  <path d="m20.147 48.74 23.707 7.8285"/>
  <path d="m20.147 56.568 23.707-7.8285"/>
 </g>
 <path transform="matrix(3.3125 0 0 3.3125 -47.5 -47.498)" d="m24 30.274-7.2453-12.549 14.491-1e-6z" fill="#9ce0d3" stop-color="#000000" stroke-width=".30189px" style="-inkscape-stroke:none;paint-order:stroke fill markers"/>
 <rect x="6.3269" y="11.231" width="52.212" height="5.5385" fill="#425294" mask="url(#mask2223)" stop-color="#000000" stroke-width="1px" style="-inkscape-stroke:none;paint-order:stroke fill markers"/>
 <g transform="matrix(.94413 0 0 1 8.2599 8.099)" mask="url(#mask2219)" stroke-width="1.0292">
  <path d="m10.984 12.639c-1.5894-0.46754-3.2419 0.44638-3.7246 2.0312-1.9401 6.3694-0.58789 14.512-0.58789 14.512l5.8691-1.252s-1.0004-5.6036 0.47266-11.564c0.39757-1.6088-0.43969-3.2581-2.0293-3.7266zm28.321 0c1.5894-0.46754 3.2419 0.44638 3.7246 2.0312 1.9401 6.3694 0.58789 14.512 0.58789 14.512l-5.8691-1.252s1.0004-5.6036-0.47266-11.564c-0.39757-1.6088 0.43969-3.2581 2.0293-3.7266z" color="#000000" stroke="#000" stroke-linecap="round" stroke-width="3.4991" style="paint-order:markers fill stroke"/>
  <path d="m10.984 12.639c-1.5894-0.46754-3.2419 0.44638-3.7246 2.0312-1.9401 6.3694-0.58789 14.512-0.58789 14.512l5.8691-1.252s-1.0004-5.6036 0.47266-11.564c0.39757-1.6088-0.43969-3.2581-2.0293-3.7266zm28.321 0c1.5894-0.46754 3.2419 0.44638 3.7246 2.0312 1.9401 6.3694 0.58789 14.512 0.58789 14.512l-5.8691-1.252s1.0004-5.6036-0.47266-11.564c-0.39757-1.6088 0.43969-3.2581 2.0293-3.7266z" color="#000000" fill="#fff" style="paint-order:markers fill stroke"/>
  <path d="m14.416 16.989-10.032-2.0771m31.49 2.0771 10.032-2.0771" fill="none" mask="url(#mask2251)" stroke="#bfbfbf" stroke-width="1.9554"/>
  <path d="m14.353 20.927-10.032-2.0771m31.615 2.0771 10.032-2.0771" fill="none" mask="url(#mask2247)" stroke="#bfbfbf" stroke-width="1.9554"/>
 </g>
 <path d="m32.08 14.389c0 2.3377-3.487 4.2329-7.7885 4.2329-4.3014 0-7.7885-1.8951-7.7885-4.2329 0-2.3377 3.487-4.2329 7.7885-4.2329 4.3014 0 7.7885 1.8951 7.7885 4.2329zm-0.15934 0c0 2.3377 3.487 4.2329 7.7885 4.2329 4.3014 0 7.7885-1.8951 7.7885-4.2329 0-2.3377-3.487-4.2329-7.7885-4.2329-4.3014 0-7.7885 1.8951-7.7885 4.2329z" fill="#425294" stop-color="#000000" stroke-width="1px" style="-inkscape-stroke:none;paint-order:stroke fill markers"/>
 <path d="m30.674 14.41c0 1.4613-1.6777 2.6459-3.7473 2.6459s-3.7473-1.1846-3.7473-2.6459c0-1.4613 1.6777-2.6459 3.7473-2.6459s3.7473 1.1846 3.7473 2.6459zm2.651 0c0 1.4613 1.6777 2.6459 3.7473 2.6459s3.7473-1.1846 3.7473-2.6459c0-1.4613-1.6777-2.6459-3.7473-2.6459s-3.7473 1.1846-3.7473 2.6459z" stop-color="#000000" stroke-width="1px" style="-inkscape-stroke:none;paint-order:stroke fill markers"/>
 <path d="m27.065 20.738c-1.0742 0.0089-1.9307 0.86545-2.4785 1.793-0.54778 0.92752-0.9493 2.062-1.2695 3.1836-0.64045 2.2432-0.93164 4.6504-0.93164 4.6504h1.7852s0.28296-2.0758 0.87695-4.1562c0.29699-1.0402 0.65354-1.7655 1.0098-2.4883 0.2457-0.49851 0.5537-0.9045 0.99219-0.91602 0.43849-0.01151 0.72057 0.46288 0.93555 0.88672 0.36651 0.72258 0.66018 1.5205 0.9375 2.584 0.55465 2.127 0.8125 4.0898 0.8125 4.0898h1.7871s-0.26218-2.2623-0.85742-4.5449c-0.29762-1.1413-0.69929-2.279-1.1875-3.2363-0.56718-1.1122-1.3718-1.8544-2.4121-1.8457zm9.871 0c1.0742 0.0089 1.9307 0.86545 2.4785 1.793 0.54778 0.92752 0.9493 2.062 1.2695 3.1836 0.64045 2.2432 0.93164 4.6504 0.93164 4.6504h-1.7852s-0.28296-2.0758-0.87695-4.1562c-0.29699-1.0402-0.65354-1.7655-1.0098-2.4883-0.2457-0.49851-0.5537-0.9045-0.99219-0.91602-0.43849-0.01151-0.72057 0.46288-0.93555 0.88672-0.36651 0.72258-0.66018 1.5205-0.9375 2.584-0.55465 2.127-0.8125 4.0898-0.8125 4.0898h-1.7871s0.26218-2.2623 0.85742-4.5449c0.29762-1.1413 0.69929-2.279 1.1875-3.2363 0.56718-1.1122 1.3718-1.8544 2.4121-1.8457z" color="#000000" style="-inkscape-stroke:none"/>
</svg>
